# xmcd
#
# Track frame offsets:
#	150
#	15520
#	35655
#	55790
#
# Disc length: 967 seconds
#
# Revision: 0
# Processed by: cddbd v1.5.2PL0 Copyright (c) Steve Scherf et al.
# Submitted via: audiograbber 1.83.01
#
DISCID=2803c504
DTITLE=Pierré André - Ich bin Schwul
DYEAR=2009
DGENRE=Schlager
TTITLE0=Ich bin schwul(radiomix)
TTITLE1=Ich bin schwul(Discomix)
TTITLE2=Ich bin schwul(Karaoke)
TTITLE3=Kämpfe für den Frieden(in der letzten Nacht)
EXTD=
EXTT0=
EXTT1=
EXTT2=
EXTT3=
PLAYORDER=
